<?xml version="1.0" ?><svg viewBox="0 0 128 128" xmlns="http://www.w3.org/2000/svg"><title/><path d="M54,63a6,6,0,1,0,6,6A6,6,0,0,0,54,63Zm0,8a2,2,0,1,1,2-2A2,2,0,0,1,54,71Z"/><path d="M75.19,54.41a7,7,0,1,0-7,7A7,7,0,0,0,75.19,54.41Zm-10,0a3,3,0,1,1,3,3A3,3,0,0,1,65.19,54.41Z"/><path d="M71.3,67.62a6,6,0,1,0,6,6A6,6,0,0,0,71.3,67.62Zm0,8a2,2,0,1,1,2-2A2,2,0,0,1,71.3,75.62Z"/><path d="M112.5,22A15.51,15.51,0,0,0,97,37.5a15.28,15.28,0,0,0,1,5.34l-8.91,4.95A13.24,13.24,0,0,0,86,45.62,9.76,9.76,0,0,1,83.8,44.2a10.3,10.3,0,0,1-1.42-2.14A9.6,9.6,0,0,0,79,38a9.68,9.68,0,0,0-5.14-.91,18.15,18.15,0,0,1-1.84,0L73.7,27a6,6,0,1,0-3.9-.9l-1.56,9.31A8.5,8.5,0,0,0,64,34a9.76,9.76,0,0,0-5,1.83A10.36,10.36,0,0,1,56.75,37a10.1,10.1,0,0,1-2.61.16A9.67,9.67,0,0,0,49,38a9.63,9.63,0,0,0-3.38,4c-.09.17-.18.32-.27.48l-9.87-9.88a20,20,0,1,0-2.83,2.83l9.88,9.87-.47.27A9.6,9.6,0,0,0,38,49a9.68,9.68,0,0,0-.91,5.14A10.07,10.07,0,0,1,37,56.75,10.36,10.36,0,0,1,35.83,59,9.76,9.76,0,0,0,34,64a9.76,9.76,0,0,0,1.83,5A10.36,10.36,0,0,1,37,71.25a10.07,10.07,0,0,1,.16,2.61c0,.54,0,1.1,0,1.67L25,81.74A11,11,0,1,0,27,88a10.73,10.73,0,0,0-.33-2.61l11.63-6a10.63,10.63,0,0,0,3.75,2.95A9.76,9.76,0,0,1,44.2,83.8a10.3,10.3,0,0,1,1.42,2.14A9.6,9.6,0,0,0,49,90a9.67,9.67,0,0,0,5.14.91,10.53,10.53,0,0,1,2.61.16A10.31,10.31,0,0,1,59,92.17L58.13,104a12,12,0,1,0,4,.39l.75-10.55A6,6,0,0,0,64,94a9.76,9.76,0,0,0,5-1.83,10.36,10.36,0,0,1,2.24-1.12,10.1,10.1,0,0,1,2.61-.16A9.68,9.68,0,0,0,79,90a9.63,9.63,0,0,0,3.38-4,13.06,13.06,0,0,1,1.19-1.88l14,12.45a7.9,7.9,0,0,0-1.07,4,8,8,0,1,0,8-8,7.91,7.91,0,0,0-4.12,1.16L87,81.77A7.93,7.93,0,0,0,90,79a9.68,9.68,0,0,0,.91-5.14,10.07,10.07,0,0,1,.16-2.61A10.36,10.36,0,0,1,92.17,69,9.76,9.76,0,0,0,94,64a9.76,9.76,0,0,0-1.83-5,10.36,10.36,0,0,1-1.12-2.24,10.07,10.07,0,0,1-.16-2.61,16.93,16.93,0,0,0-.12-2.73l9-5A15.49,15.49,0,1,0,112.5,22ZM16,95a7,7,0,1,1,7-7A7,7,0,0,1,16,95ZM73,19a2,2,0,1,1-2,2A2,2,0,0,1,73,19ZM4,20A16,16,0,1,1,20,36,16,16,0,0,1,4,20Zm63,96a8,8,0,1,1-8-8A8,8,0,0,1,67,116Zm41.5-15.5a4,4,0,1,1-4-4A4,4,0,0,1,108.5,100.5ZM88.74,67a13,13,0,0,0-1.55,3.26,13.32,13.32,0,0,0-.3,3.7A6.8,6.8,0,0,1,86.52,77,6.87,6.87,0,0,1,84,78.89,10.05,10.05,0,0,0,78.89,84,6.78,6.78,0,0,1,77,86.52a6.8,6.8,0,0,1-3.08.37,13.32,13.32,0,0,0-3.7.3A13,13,0,0,0,67,88.74,6.76,6.76,0,0,1,64,90a6.76,6.76,0,0,1-3-1.26,13,13,0,0,0-3.26-1.55,11.21,11.21,0,0,0-2.92-.31h-.78A6.8,6.8,0,0,1,51,86.52,6.87,6.87,0,0,1,49.11,84,13,13,0,0,0,47,81a13,13,0,0,0-3-2.08A6.78,6.78,0,0,1,41.48,77a6.8,6.8,0,0,1-.37-3.08,13.32,13.32,0,0,0-.3-3.7A13,13,0,0,0,39.26,67,6.76,6.76,0,0,1,38,64a6.76,6.76,0,0,1,1.26-3,13,13,0,0,0,1.55-3.26,13.32,13.32,0,0,0,.3-3.7A6.8,6.8,0,0,1,41.48,51,6.87,6.87,0,0,1,44,49.11,13,13,0,0,0,47,47a13,13,0,0,0,2.08-3A6.78,6.78,0,0,1,51,41.48a6.8,6.8,0,0,1,3.08-.37,13.32,13.32,0,0,0,3.7-.3A13,13,0,0,0,61,39.26,6.76,6.76,0,0,1,64,38a6.76,6.76,0,0,1,3,1.26,13,13,0,0,0,3.26,1.55,13.32,13.32,0,0,0,3.7.3,6.8,6.8,0,0,1,3.08.37A6.87,6.87,0,0,1,78.89,44,13,13,0,0,0,81,47a13,13,0,0,0,3,2.08A6.78,6.78,0,0,1,86.52,51a6.8,6.8,0,0,1,.37,3.08,13.32,13.32,0,0,0,.3,3.7A13,13,0,0,0,88.74,61,6.76,6.76,0,0,1,90,64,6.76,6.76,0,0,1,88.74,67ZM112.5,49A11.5,11.5,0,1,1,124,37.5,11.51,11.51,0,0,1,112.5,49Z"/></svg>