<?xml version="1.0" standalone="no"?>
<!DOCTYPE svg PUBLIC "-//W3C//DTD SVG 20010904//EN"
 "http://www.w3.org/TR/2001/REC-SVG-20010904/DTD/svg10.dtd">
<svg version="1.0" xmlns="http://www.w3.org/2000/svg"
 width="700.000000pt" height="700.000000pt" viewBox="0 0 700.000000 700.000000"
 preserveAspectRatio="xMidYMid meet">
<metadata>
Created by potrace 1.11, written by Peter Selinger 2001-2013
</metadata>
<g transform="translate(0.000000,700.000000) scale(0.100000,-0.100000)"
fill="#000000" stroke="none">
<path d="M3003 6979 c-67 -43 -63 -141 6 -182 24 -14 57 -17 205 -17 l176 0 0
-253 0 -252 -52 -18 c-79 -28 -162 -72 -273 -147 -55 -38 -122 -78 -150 -90
-27 -13 -59 -27 -70 -33 -24 -13 -237 -18 -355 -9 -161 13 -306 -12 -393 -68
-98 -62 -155 -135 -256 -330 -36 -70 -73 -137 -81 -149 -15 -21 -20 -16 -260
224 l-245 245 127 126 c137 135 153 164 128 224 -21 51 -86 79 -138 59 -38
-14 -682 -663 -683 -688 -1 -12 -2 -27 -3 -33 -7 -51 51 -108 109 -108 41 0
64 18 194 149 l113 114 244 -244 c134 -134 244 -246 244 -249 0 -3 -66 -39
-147 -80 -204 -104 -283 -164 -348 -265 -64 -100 -69 -129 -69 -445 l-1 -285
-38 -79 c-20 -43 -51 -99 -69 -125 -88 -128 -110 -164 -136 -222 -16 -35 -35
-81 -41 -101 l-13 -38 -254 0 -254 0 -1 170 c-1 94 -3 175 -4 180 -1 6 -3 14
-4 18 -2 18 -39 52 -65 62 -43 16 -103 -4 -126 -43 -19 -31 -20 -54 -20 -496
0 -448 1 -465 20 -496 44 -72 149 -65 185 10 12 26 15 71 15 204 l0 171 253 0
252 0 17 -48 c36 -100 51 -129 145 -269 131 -195 146 -246 138 -470 -8 -215
-7 -274 5 -344 32 -177 133 -288 370 -409 58 -29 125 -64 148 -78 l44 -25
-245 -245 -245 -245 -124 122 c-141 139 -143 141 -181 141 -70 0 -126 -67
-111 -134 5 -23 85 -109 328 -353 176 -178 335 -330 352 -338 78 -37 164 29
149 116 -7 38 -8 39 -154 187 l-103 104 243 244 c134 134 246 244 249 244 3 0
39 -66 80 -147 123 -241 200 -330 335 -385 74 -30 99 -32 381 -33 l281 0 94
-47 c52 -25 114 -62 139 -81 66 -50 196 -122 267 -147 l62 -22 3 -238 c2 -130
2 -244 0 -253 -3 -15 -23 -17 -171 -17 -94 0 -182 -5 -199 -11 -57 -20 -83
-88 -55 -146 30 -64 24 -63 533 -63 417 0 465 2 491 17 76 45 68 164 -13 192
-17 6 -105 11 -199 11 l-169 0 0 255 c0 197 3 255 13 255 32 1 198 86 302 155
63 42 145 90 182 108 66 30 72 31 208 31 77 0 191 -1 253 -2 136 -3 217 10
297 48 115 55 195 151 303 365 33 66 66 128 74 138 12 16 36 -6 257 -227 l245
-245 -127 -127 c-136 -137 -152 -164 -127 -225 22 -51 85 -78 137 -58 31 11
683 661 684 681 0 7 2 22 4 33 7 34 -26 86 -63 102 -63 26 -86 14 -226 -123
l-129 -126 -244 244 c-133 133 -243 245 -243 248 0 3 57 34 128 70 268 136
359 217 414 371 22 61 23 77 23 349 0 260 2 289 20 330 27 63 80 156 114 199
44 56 117 189 142 259 l22 62 41 1 c133 2 459 0 462 -3 2 -2 4 -82 4 -178 2
-194 8 -216 64 -242 50 -24 111 -5 139 41 15 26 17 75 17 493 0 437 -1 465
-19 494 -24 40 -66 55 -129 45 -14 -2 -48 -34 -60 -56 -6 -12 -11 -71 -11
-133 0 -62 0 -141 -1 -177 l0 -65 -255 0 c-197 0 -255 3 -255 13 0 33 -123
275 -150 297 -17 13 -71 103 -106 175 l-39 80 0 290 c-1 275 -2 293 -23 350
-56 151 -143 230 -391 355 -64 32 -124 64 -134 72 -16 12 6 36 228 258 l245
244 127 -127 c70 -70 138 -130 151 -134 35 -9 100 14 118 42 21 33 25 84 8
115 -16 30 -641 654 -669 667 -24 12 -76 9 -105 -7 -12 -6 -28 -28 -37 -47
-27 -65 -14 -88 123 -228 l126 -128 -243 -243 c-134 -134 -246 -244 -249 -244
-3 0 -36 62 -75 137 -134 262 -201 338 -350 399 l-70 29 -290 0 -290 0 -75 36
c-41 20 -126 70 -189 112 -97 65 -148 91 -284 145 -18 7 -21 83 -17 465 l0 47
169 0 c93 0 181 4 194 9 58 22 87 92 61 147 -30 64 -32 64 -541 64 -445 0
-459 -1 -490 -21z m602 -933 c28 -11 62 -28 77 -38 14 -10 29 -18 32 -18 3 0
50 -30 103 -66 53 -37 134 -84 180 -106 123 -58 195 -69 403 -62 264 9 296 7
361 -20 70 -29 117 -90 210 -272 39 -77 88 -164 108 -194 79 -119 193 -208
385 -299 184 -88 252 -145 281 -238 18 -57 20 -104 11 -348 -9 -250 22 -353
171 -576 116 -173 137 -221 137 -309 0 -89 -22 -140 -136 -308 -82 -122 -144
-249 -163 -335 -10 -45 -12 -113 -9 -242 7 -262 6 -298 -12 -352 -31 -90 -96
-144 -294 -242 -259 -128 -354 -222 -470 -465 -81 -171 -142 -254 -215 -292
-39 -20 -112 -28 -215 -24 -159 6 -353 4 -394 -3 -100 -19 -203 -68 -355 -169
-156 -105 -220 -133 -306 -133 -56 1 -82 7 -130 30 -33 15 -61 32 -63 37 -2 4
-8 8 -13 8 -6 0 -49 27 -97 59 -230 156 -334 187 -592 176 -217 -10 -218 -10
-283 -2 -121 15 -174 68 -288 289 -148 287 -216 357 -484 494 -181 92 -219
118 -262 179 -44 63 -49 117 -39 420 7 182 -6 259 -63 380 -22 47 -65 122 -97
168 -31 45 -77 120 -103 167 -43 80 -46 90 -46 160 0 89 21 136 142 317 150
227 176 316 167 578 -9 278 -5 334 34 394 40 61 120 118 261 184 253 118 356
220 480 472 63 127 100 189 137 230 59 65 151 94 279 87 145 -7 349 -7 404 1
86 12 196 64 356 168 215 139 294 161 410 115z"/>
<path d="M3430 5154 c-53 -16 -118 -68 -220 -177 l-74 -79 -46 7 c-25 3 -87
20 -138 36 -250 79 -373 5 -431 -261 -25 -110 -42 -150 -70 -164 -15 -8 -77
-26 -138 -39 -127 -29 -182 -54 -230 -105 -67 -71 -75 -167 -25 -328 55 -178
59 -161 -61 -275 -154 -147 -192 -235 -151 -351 16 -44 39 -73 136 -170 133
-133 130 -123 88 -253 -36 -110 -46 -161 -44 -222 4 -129 84 -201 274 -245
143 -33 170 -46 187 -86 8 -19 23 -76 34 -126 27 -124 69 -208 122 -245 82
-56 143 -59 292 -15 113 33 155 43 179 44 10 0 64 -47 125 -110 127 -129 181
-161 268 -155 93 6 130 31 287 194 67 68 71 71 110 67 23 -2 77 -15 121 -30
97 -31 170 -46 204 -40 95 16 125 33 171 96 29 40 65 134 75 198 7 45 33 132
42 145 14 18 64 36 160 55 167 34 259 94 287 188 18 62 12 127 -23 242 -16 52
-32 114 -36 138 l-7 43 110 107 c128 124 155 169 156 257 1 91 -28 141 -157
267 -127 124 -123 110 -68 282 54 168 43 266 -38 339 -51 46 -87 61 -230 98
-62 16 -121 34 -131 39 -20 11 -40 66 -65 180 -55 253 -178 322 -427 241 -53
-17 -115 -34 -137 -37 l-42 -6 -107 110 c-61 63 -126 119 -151 132 -54 27
-122 32 -181 14z m127 -253 c27 -27 73 -74 103 -106 112 -117 201 -139 365
-89 185 56 189 56 203 37 13 -18 27 -63 36 -118 16 -87 30 -132 57 -187 44
-88 108 -126 267 -163 59 -14 120 -31 136 -37 26 -11 28 -14 23 -53 -4 -23
-18 -77 -33 -121 -22 -62 -28 -98 -28 -169 -1 -80 2 -95 26 -135 14 -25 74
-91 132 -148 58 -57 106 -108 106 -113 0 -5 -45 -53 -101 -107 -55 -53 -114
-119 -131 -147 -29 -45 -32 -58 -32 -130 0 -62 7 -102 32 -180 17 -55 33 -114
35 -131 5 -30 3 -32 -47 -48 -28 -9 -89 -25 -136 -36 -167 -40 -232 -95 -276
-234 -14 -45 -27 -92 -29 -106 -5 -40 -26 -114 -36 -126 -13 -15 -56 -9 -153
22 -105 33 -129 38 -197 38 -87 -1 -138 -32 -259 -156 -58 -60 -111 -108 -119
-108 -8 0 -63 49 -121 110 -128 132 -169 154 -275 153 -48 -1 -99 -10 -165
-32 -143 -46 -157 -47 -173 -14 -15 29 -21 51 -42 161 -14 76 -53 159 -94 201
-47 48 -110 74 -250 105 -40 9 -88 23 -106 30 -32 14 -33 15 -24 60 4 25 20
80 35 123 18 51 28 104 29 153 4 110 -18 150 -155 283 -60 59 -110 112 -110
119 0 6 49 59 109 117 60 58 119 126 132 151 35 66 31 174 -9 300 -47 148 -47
147 -13 164 15 8 39 17 52 20 297 58 351 102 404 332 38 164 40 167 89 161 23
-3 77 -17 121 -33 62 -21 100 -27 170 -28 81 -1 95 2 135 26 25 14 91 74 148
132 57 58 107 106 112 106 5 0 31 -22 57 -49z"/>
</g>
</svg>
